<svg width="50" height="50" viewBox="0 0 50 50" fill="none" xmlns="http://www.w3.org/2000/svg">
<circle cx="25" cy="25" r="24.5" stroke="white"/>
<path d="M33.125 18.3125H15.875C15.4938 18.3125 15.1281 18.464 14.8585 18.7335C14.589 19.0031 14.4375 19.3688 14.4375 19.75V31.25C14.4375 31.6312 14.589 31.9969 14.8585 32.2665C15.1281 32.536 15.4938 32.6875 15.875 32.6875H33.125C33.5062 32.6875 33.8719 32.536 34.1415 32.2665C34.411 31.9969 34.5625 31.6312 34.5625 31.25V19.75C34.5625 19.3688 34.411 19.0031 34.1415 18.7335C33.8719 18.464 33.5062 18.3125 33.125 18.3125V18.3125ZM31.5437 19.75L24.5 24.6231L17.4562 19.75H31.5437ZM15.875 31.25V20.4041L24.0903 26.0894C24.2106 26.1728 24.3536 26.2176 24.5 26.2176C24.6464 26.2176 24.7894 26.1728 24.9097 26.0894L33.125 20.4041V31.25H15.875Z" fill="white"/>
</svg>
