<svg width="14" height="14" viewBox="0 0 14 14" fill="none" xmlns="http://www.w3.org/2000/svg">
<path d="M12 13.5H11.915C2.09002 12.935 0.695018 4.645 0.500018 2.115C0.469541 1.71837 0.597859 1.32588 0.856749 1.02386C1.11564 0.72184 1.4839 0.535022 1.88052 0.504501C1.92018 0.501501 1.96002 0.5 2.00002 0.5H4.63502C4.8353 0.499807 5.03102 0.559755 5.19683 0.672081C5.36265 0.784407 5.49091 0.943935 5.56502 1.13L6.32502 3C6.39819 3.18177 6.41635 3.38104 6.37724 3.57305C6.33813 3.76505 6.24347 3.94134 6.10502 4.08L5.04002 5.155C5.2057 6.10066 5.65821 6.97249 6.33619 7.65226C7.01416 8.33202 7.88479 8.78683 8.83002 8.955L9.91502 7.88C10.0558 7.74308 10.2337 7.65063 10.4267 7.61417C10.6196 7.57771 10.819 7.59887 11 7.675L12.885 8.43C13.0683 8.50644 13.2246 8.63571 13.3342 8.80134C13.4437 8.96696 13.5014 9.16144 13.5 9.36V12C13.5 12.3978 13.342 12.7794 13.0607 13.0607C12.7794 13.342 12.3978 13.5 12 13.5ZM2.00002 1.5C1.93436 1.4998 1.8693 1.51254 1.80856 1.53749C1.74782 1.56243 1.69259 1.5991 1.64602 1.64539C1.59946 1.69168 1.56246 1.74669 1.53715 1.80727C1.51184 1.86786 1.49871 1.93284 1.49852 1.9985C1.49852 2.0125 1.49902 2.02633 1.50002 2.04C1.73002 5 3.20502 12 11.97 12.5C12.1024 12.5079 12.2324 12.463 12.3316 12.375C12.4308 12.2871 12.491 12.1633 12.499 12.031L12.5 12V9.36L10.615 8.605L9.18002 10.03L8.94002 10C4.59002 9.455 4.00002 5.105 4.00002 5.06L3.97002 4.82L5.39002 3.385L4.64002 1.5H2.00002Z" fill="white"/>
</svg>
